<?xml version="1.0" encoding="utf-8"?>
<!-- Generator: Adobe Illustrator 19.0.0, SVG Export Plug-In . SVG Version: 6.00 Build 0)  -->
<svg version="1.1" id="Layer_1" xmlns="http://www.w3.org/2000/svg" xmlns:xlink="http://www.w3.org/1999/xlink" x="0px" y="0px"
	 viewBox="-275 370 60 54" style="enable-background:new -275 370 60 54;" xml:space="preserve">
<style type="text/css">
	.st0{fill:none;stroke:#8A8C8E;stroke-width:2.3882;stroke-linecap:round;stroke-miterlimit:10;}
	.st1{fill:#F16254;}
	.st2{display:none;}
	.st3{display:inline;fill:#FFFFFF;}
	.st4{fill:#F2F2F2;}
</style>
<g>
	<g id="XMLID_19_">
		<line id="XMLID_25_" class="st0" x1="-236.3" y1="391" x2="-273" y2="422"/>
		<circle id="XMLID_20_" class="st1" cx="-236.3" cy="391" r="20.8"/>
	</g>
</g>
<g class="st2">
	<path class="st3" d="M-231.2,387.5c0,0.8-0.2,1.5-0.6,2.1c-0.4,0.6-1,1.1-1.7,1.5c0.8,0.4,1.5,0.9,2,1.6c0.5,0.7,0.7,1.5,0.7,2.3
		c0,1.4-0.5,2.5-1.4,3.3c-0.9,0.8-2.2,1.2-3.7,1.2c-1.5,0-2.8-0.4-3.7-1.2c-0.9-0.8-1.4-1.9-1.4-3.3c0-0.9,0.2-1.6,0.7-2.3
		c0.5-0.7,1.1-1.2,2-1.6c-0.7-0.4-1.3-0.8-1.7-1.5c-0.4-0.6-0.6-1.3-0.6-2.1c0-1.3,0.4-2.4,1.3-3.2c0.9-0.8,2-1.2,3.4-1.2
		c1.4,0,2.5,0.4,3.4,1.2C-231.7,385.1-231.2,386.1-231.2,387.5z M-232.9,394.9c0-0.9-0.3-1.6-0.8-2.2c-0.6-0.6-1.3-0.8-2.2-0.8
		c-0.9,0-1.6,0.3-2.2,0.8c-0.6,0.6-0.8,1.3-0.8,2.2c0,0.9,0.3,1.6,0.8,2.1c0.5,0.5,1.3,0.8,2.2,0.8c0.9,0,1.7-0.3,2.2-0.8
		C-233.2,396.5-232.9,395.8-232.9,394.9z M-235.9,384.8c-0.8,0-1.4,0.2-1.9,0.7c-0.5,0.5-0.7,1.2-0.7,2c0,0.8,0.2,1.5,0.7,2
		c0.5,0.5,1.1,0.7,1.9,0.7c0.8,0,1.5-0.2,1.9-0.7s0.7-1.2,0.7-2c0-0.8-0.3-1.5-0.8-2C-234.5,385-235.2,384.8-235.9,384.8z"/>
</g>
<g>
	<path class="st4" d="M-231.8,385.7l-4.9,11.4h-2.7l4.9-10.7h-6.4v-2h9V385.7z"/>
</g>
</svg>
