<?xml version="1.0" encoding="utf-8"?>
<!-- Generator: Adobe Illustrator 19.0.0, SVG Export Plug-In . SVG Version: 6.00 Build 0)  -->
<svg version="1.1" id="Layer_1" xmlns="http://www.w3.org/2000/svg" xmlns:xlink="http://www.w3.org/1999/xlink" x="0px" y="0px"
	 viewBox="-450 307.6 40 42" style="enable-background:new -450 307.6 40 42;" xml:space="preserve">
<style type="text/css">
	.st0{fill:#F2F2F2;}
	.st1{fill:#FBB03B;}
</style>
<g id="XMLID_66_">
	<rect id="XMLID_74_" x="-445" y="310.6" class="st0" width="30.3" height="27.8"/>
	<path id="XMLID_67_" class="st1" d="M-415.2,308.2h-29.6c-2.3,0-4.2,1.8-4.2,4.1V338c0,2.3,1.8,4.3,4.2,4.3h8.5l6.3,6.3l6.3-6.3
		h8.5c2.3,0,4.2-1.9,4.2-4.3v-25.7C-411,310-412.9,308.2-415.2,308.2z M-438.7,327.6h-4.1V323h4.1V327.6z M-417.6,318.7h-25.2v-4.6
		h25.2V318.7z M-417.6,327.6h-17V323h17V327.6z M-438.7,335.9h-4.1v-4.6h4.1V335.9z M-417.6,335.9h-17v-4.6h17V335.9z"/>
</g>
</svg>
